<svg width="16" height="16" viewBox="0 0 16 16" xmlns="http://www.w3.org/2000/svg">
<style>
	path {
	  fill: #14673A;
	}
	@media (prefers-color-scheme: dark) {
	  path {
		fill: #319347;
	  }
	}
  </style>
<path fill="#14673A" fill-rule="evenodd" d="M8.06 0c1.4.48 2.23 1.17 2.6 1.95.18.35.25.67.25.96v.06l.12-.07c.24-.13.53-.21.85-.24h.2c.87 0 1.84.44 2.8 1.29l.07.1c.28 1.45.1 2.52-.38 3.24-.2.28-.4.49-.63.63L13.8 8l.1.06c.2.11.37.27.54.48l.13.17c.48.73.66 1.79.38 3.24l-.07.1c-.96.85-1.93 1.3-2.8 1.3-.4 0-.76-.1-1.05-.25l-.13-.07v.06c0 .24-.04.5-.16.79l-.07.17c-.38.78-1.21 1.47-2.6 1.95h-.13c-1.4-.48-2.22-1.17-2.6-1.95-.18-.36-.25-.7-.24-1.01l-.12.06c-.2.1-.43.18-.68.22l-.18.02h-.2c-.87 0-1.84-.44-2.8-1.29l-.06-.1c-.29-1.45-.1-2.51.38-3.24.2-.3.42-.5.66-.65L2.2 8l-.1-.06a2.11 2.11 0 0 1-.54-.48l-.12-.17C.95 6.56.77 5.5 1.06 4.05l.06-.1c.96-.85 1.93-1.3 2.8-1.3.4 0 .76.1 1.06.25l.12.07V2.9c0-.24.04-.5.16-.79l.07-.17C5.72 1.17 6.54.48 7.93 0h.13ZM8 11.92v.02c-.3.51-.88.84-1.78.84-.13 0-.26 0-.4-.02l-.11-.01.03.08c.38.8 1.18 1.36 2.08 1.43H8c.97 0 1.86-.57 2.26-1.44l.07-.14-.03.07-.13.01-.2.02H9.8c-.87 0-1.43-.3-1.75-.79L8 11.92Zm5.25-3.54-.05.14c-.43.95-1.03 1.38-1.68 1.43h-.13l.05.09c.3.58.24 1.33-.4 2.22l-.08.1.1.02h.19a2.51 2.51 0 0 0 2.07-3.91l-.07-.09Zm-10.5 0-.06.09a2.51 2.51 0 0 0 2.26 3.9h.1l-.08-.1c-.62-.86-.7-1.59-.43-2.17l.07-.14H4.5c-.65-.05-1.26-.49-1.7-1.45l-.05-.13Zm2.54 1.71-.06-.04v.01a1.55 1.55 0 0 0 2.35 1.4l.03-.03-.06-.02c-.55-.28-.8-.65-.84-1.08v-.09l-.04.02c-.12.06-.24.1-.37.12h-.15c-.28 0-.57-.1-.86-.29Zm5.48-.04-.06.04c-.3.2-.58.3-.86.3-.19 0-.36-.05-.51-.13l-.05-.02v.04c0 .09-.02.17-.04.26l-.05.13c-.13.3-.38.54-.75.73l-.06.03.05.03c.19.11.4.18.62.2l.16.01a1.55 1.55 0 0 0 1.56-1.6v-.02ZM8 5.58a.9.9 0 0 0-.82.54l-.03.08.09.47-.37-.3-.07-.02h-.11a.9.9 0 0 0-.72 1.42l.05.07.45.16-.45.16-.05.07a.9.9 0 0 0-.1.87l.04.1a.9.9 0 0 0 .78.46l.1-.01.08-.01.36-.3-.08.46.03.08c.13.28.4.49.7.53H8a.9.9 0 0 0 .82-.53l.03-.08-.08-.46.36.3.07.01h.11a.9.9 0 0 0 .72-1.42l-.05-.07L9.53 8l.45-.16.05-.07a.9.9 0 0 0 .11-.87l-.05-.1a.9.9 0 0 0-.78-.46l-.1.01-.08.01-.36.31.08-.47-.03-.08a.9.9 0 0 0-.7-.53H8Zm3.16 1.04v.06c.04.61-.16 1.03-.52 1.28l-.06.04.04.02c.07.05.14.1.2.17l.09.1c.2.26.28.6.26 1.02v.07c.46-.25.77-.72.82-1.24V8c0-.58-.32-1.1-.82-1.38Zm-6.32.07v-.07C4.33 6.9 4 7.42 4 8c0 .58.32 1.1.82 1.38v-.06c-.03-.62.15-1.02.5-1.27L5.43 8l-.04-.02a1.1 1.1 0 0 1-.2-.17l-.09-.1c-.2-.26-.28-.6-.25-1.02ZM9.2 8.74V7.36L8 6.66l-1.2.7v1.38l1.2.69 1.2-.7ZM4.76 3.62a2.51 2.51 0 0 0-2.07 3.91l.06.09.06-.14c.43-.95 1.03-1.39 1.69-1.44h.1l-.04-.08c-.3-.58-.23-1.33.4-2.22l.08-.1-.1-.02h-.18Zm6.48 0H11l-.04.01.07.1c.65.9.71 1.66.4 2.25l-.04.06h.12c.65.05 1.25.49 1.69 1.45l.05.13.07-.09c.49-.73.57-1.69.19-2.5l-.1-.16a2.51 2.51 0 0 0-2.17-1.25Zm-2.02.7c-.28 0-.55.08-.78.22l-.05.03.05.02c.6.3.84.67.85 1.14v.03c.13-.07.27-.12.41-.14h.15c.28 0 .57.1.87.29l.05.04v-.01a1.58 1.58 0 0 0-.65-1.33L10 4.53c-.23-.13-.5-.2-.78-.2Zm-2.44 0A1.55 1.55 0 0 0 5.23 5.8v.15l.06-.04c.25-.16.49-.26.72-.29h.14c.18 0 .34.03.5.1l.06.04v-.04c0-.09.02-.17.04-.26l.05-.13c.13-.3.38-.54.75-.73l.06-.03-.04-.03c-.2-.11-.4-.18-.62-.2l-.17-.01ZM8 1.75c-.97 0-1.86.57-2.26 1.44l-.03.07.12-.01.2-.02h.19c.86 0 1.43.3 1.74.79l.04.07v-.02c.28-.47.8-.8 1.58-.84h.2c.13 0 .26 0 .4.02l.12.01-.04-.08a2.53 2.53 0 0 0-2.08-1.43H8Z"/>
</svg>